PathFileType	4	(X/Y/Z)	Patient4_TMGait_0pt7_02_right_44.trc.trc
DataRate	CameraRate	NumFrames	NumMarkers	Units	OrigDataRate	OrigDataStartFrame	OrigNumFrames
90.322580645161	90.322580645161	4	33	mm	90.322580645161	71	       141
Frame#	Time	Sacral			L.Shoulder			Chest			R.Shoulder			Neck			R.ASIS			L.ASIS			R.Thigh.Superior			R.Thigh.Lateral			R.Thigh.Inferior			R.Patella			L.Thigh.Superior			L.Thigh.Lateral			L.Thigh.Inferior			L.Patella			L.Shank.Superior			L.Shank.Lateral			L.Shank.Inferior			R.Shank.Superior			R.Shank.Lateral			R.Shank.Inferior			R.Heel			R.Midfoot.Superior			R.Midfoot.Lateral			R.Toe			L.Heel			L.Midfoot.Lateral			L.Midfoot.Superior			L.Toe			L.Elbow			L.Wrist			R.Elbow			R.Wrist			
		X1	Y1	Z1	X2	Y2	Z2	X3	Y3	Z3	X4	Y4	Z4	X5	Y5	Z5	X6	Y6	Z6	X7	Y7	Z7	X8	Y8	Z8	X9	Y9	Z9	X10	Y10	Z10	X11	Y11	Z11	X12	Y12	Z12	X13	Y13	Z13	X14	Y14	Z14	X15	Y15	Z15	X16	Y16	Z16	X17	Y17	Z17	X18	Y18	Z18	X19	Y19	Z19	X20	Y20	Z20	X21	Y21	Z21	X22	Y22	Z22	X23	Y23	Z23	X24	Y24	Z24	X25	Y25	Z25	X26	Y26	Z26	X27	Y27	Z27	X28	Y28	Z28	X29	Y29	Z29	X30	Y30	Z30	X31	Y31	Z31	X32	Y32	Z32	X33	Y33	Z33	

71	50.645000000000	735.597029216167	999.970402107804	492.299797293649	909.216040721333	1410.880126765042	283.892314062432	1027.088276971734	1341.846214886305	435.420948683223	966.690756438320	1429.018395868084	612.528496296956	925.630999861348	1476.327170944141	436.864513056715	961.120873678262	928.224573962084	601.383794045103	938.147441658947	936.185001703000	326.580546004676	952.147508045226	713.120910752556	579.544969871566	842.891616177610	624.574556975452	641.899152525882	900.527985690484	554.972712068254	563.100106983671	877.828176851201	468.890290143564	568.038264489164	1016.004367965922	764.805313343434	367.327219333990	978.316814926015	636.313902253769	283.781728104815	1081.556603609973	583.167276412092	351.344908377975	1109.605252586520	515.541732471034	347.396281677388	1091.916592809063	440.543163090074	334.255832986175	1025.216828298584	311.991904000403	280.835652411752	1109.284139723548	211.549721950430	337.470959067337	833.646121959996	387.518811866228	576.349600019344	745.320732696424	300.024129510059	641.010359708612	766.348124224913	198.640653089145	578.250824102112	607.810084915286	45.726213758128	551.545326666577	779.550891079981	96.169530926993	588.268473837356	689.913775502657	37.770582673878	626.888918790517	898.469924014506	39.805917427336	619.581988376500	1020.164097951067	37.840934756572	371.384861119536	1096.463213929068	40.757164628614	293.223940268801	1169.757320163619	112.885224827361	318.773167077467	1302.914709965809	77.029100284645	295.917170129600	737.881917863900	1101.331513405767	205.783846084717	674.769558772170	849.309353181482	233.028823248047	1124.226719320956	1138.123637347418	736.813264747739	1346.758819167290	1191.837760448010	629.394931857258	
72	50.656071428571	737.374480827223	997.968510838335	489.301547292164	909.586338436527	1409.559204471345	281.402002114399	1027.540785472150	1340.962493211140	433.094703287184	966.213716305575	1427.435608419739	610.277784267803	925.474631091261	1474.948130141198	434.486825449976	963.041101184839	926.442890053868	598.709708242069	940.388364216598	934.633565892784	324.212534949599	953.108566194824	711.207640183560	576.971273117895	843.352404178109	623.174592027189	639.652673544441	900.559590551156	553.100046258792	560.914791239642	877.108764089381	466.361173747353	566.055427782940	1017.538084438344	761.742208079778	364.375796547133	977.217191651909	633.621840918726	281.811910504674	1080.586419926615	579.856631708327	348.655803172688	1107.033561979576	511.894170226519	345.236755332002	1089.626850595218	436.946249234753	332.278253614063	1022.189947996567	308.397240841048	280.194733977559	1106.124734069950	208.145643001802	337.094805309348	831.399587255994	385.713709213599	574.736570533736	741.619726817154	299.866709396805	639.927290736676	760.685926899434	198.032897762338	577.611296817670	600.100402054337	46.679686281700	551.671649452705	772.126375441753	96.272910688202	588.175423457654	682.251997911661	38.233821214687	626.935250821475	890.811192840255	39.556405758831	619.655792001250	1015.334033830413	36.838051512497	372.797439801433	1090.863794996332	38.354729222333	293.768867759806	1165.755625286982	108.673079805067	318.935481087160	1298.108217641216	70.046075201572	294.844924817548	736.329672414709	1101.333309654085	204.869406952359	669.074707561610	850.501405970937	232.601701094061	1125.273917758607	1136.448353160828	732.197725317068	1345.518750020570	1199.015778203030	625.982565722662	
73	50.667142857143	738.948151506826	996.194427334434	486.321094635148	910.013226304532	1408.352394168993	278.810362529663	1028.066703831466	1340.169214203841	430.663084624525	965.899835451387	1425.991550855199	607.949850773728	925.499974167853	1473.756488964840	431.966066731525	964.828410057305	924.811192141496	595.932418757246	942.391561507314	933.380266058570	321.732174175948	954.404047596572	709.511323607572	574.229365648935	844.449493187627	621.758246642012	637.252687898155	901.454177756731	551.288313781914	558.608195155247	877.387241502839	463.685456448694	564.037492909049	1019.297961570098	759.636882205275	361.127953395738	976.565951723738	631.705000634401	279.810071298674	1080.296808522900	577.534076893353	345.702995634280	1105.249236589164	509.101239339464	343.023732254700	1087.931607120055	434.023292267361	330.436452604738	1019.468840286306	305.799994765522	279.155026961779	1102.387239181108	205.311413731186	336.725012089467	829.900364034406	383.907514712360	573.082566369282	738.504580956326	299.929070824466	638.773087884679	755.439925076696	197.622552205373	576.968940883243	592.501502907339	48.233638989128	551.852989893140	764.950747492912	96.457421284885	588.107965888991	674.689441668436	39.014620103189	627.000806791155	883.199482861362	39.271878331443	619.716985508070	1009.042503815406	36.487411647788	373.862442872084	1083.960588646615	36.586878241785	294.111974401886	1160.527878532603	105.015098819181	319.103933211843	1292.071094917336	63.472013516452	293.980589559486	735.777387388976	1100.752833622837	203.813376651863	664.670348837550	851.118326214272	231.879338946820	1125.689360181101	1134.356327310939	727.670643684936	1343.627939905667	1205.017409495759	622.777899435829	
74	50.678214285714	740.289293068252	994.747578783823	483.400813883947	910.491479602395	1407.353896835019	276.155108219548	1028.663070330390	1339.520799381196	428.137983145476	965.818726673174	1424.785145339400	605.551408078703	925.738468192932	1472.837870874503	429.333083741385	966.420028214421	923.439842938178	593.064000021791	944.102057246382	932.508026712118	319.103185016125	955.988698085266	708.130633763292	571.344738195118	846.170556670521	620.396698929534	634.733392074232	903.235766763676	549.620342451213	556.233703525610	878.732226956093	460.939297050524	562.096497592083	1021.227666148076	758.564820490233	357.600148060575	976.353588667087	630.596759072933	277.750324139946	1080.562102499745	576.166609987543	342.534083629816	1104.181825137799	507.184105230246	340.778306007738	1086.778533288909	431.812075093662	328.741707110975	1017.121497659626	304.179921986805	277.691844910371	1098.228572588590	203.092175625165	336.350813543622	829.193801050663	382.183063097372	571.459720912957	736.006883834169	300.323666755624	637.571774929916	750.685933581115	197.510918438024	576.359763767199	585.079156394009	50.563160630794	552.075080118766	758.102040027990	96.746814795344	588.081196287708	667.262488413458	40.221415669678	627.078059667418	875.629656066162	38.947381784427	619.754192000021	1001.729977200700	36.586318591478	374.535967879151	1076.216878882494	35.406925498824	294.243441651919	1154.351535293799	102.070903437509	319.250573569545	1285.162279133323	57.803119002141	293.347415136203	736.214253628251	1099.677628689155	202.577527687005	661.669304670536	851.181398299046	230.833482909840	1125.427089181749	1131.902299404039	723.277106169574	1341.163936226534	1209.786419403287	619.801586177868	
